<svg width="360" height="240" viewBox="0 0 360 240" fill="none" xmlns="http://www.w3.org/2000/svg">
  <rect width="360" height="240" rx="24" fill="#EDF4EF"/>
  <circle cx="120" cy="96" r="36" fill="#C9E9D8"/>
  <path d="M90 148C90 138.058 98.058 130 108 130H132C141.942 130 150 138.058 150 148V188H90V148Z" fill="#A7D6BC"/>
  <path d="M224 74C224 63.5066 232.507 55 243 55H281C291.493 55 300 63.5066 300 74V102C300 112.493 291.493 121 281 121H243C232.507 121 224 112.493 224 102V74Z" fill="#2F7D5A"/>
  <path d="M244 160C244 150.058 252.058 142 262 142H282C291.942 142 300 150.058 300 160V194H244V160Z" fill="#70AB8C"/>
  <path d="M72 70C72 56.7452 83.7452 45 97 45H121C134.255 45 146 56.7452 146 70V89H72V70Z" fill="#7BB897"/>
  <path d="M110 192C110 181.506 118.507 173 129 173H153C163.493 173 172 181.506 172 192V204H110V192Z" fill="#2F7D5A"/>
</svg>
